<svg xmlns="http://www.w3.org/2000/svg" viewBox="0 0 64 64" width="128" height="128" fill="none">
  <defs>
    <linearGradient id="towerA" x1="32" y1="6" x2="32" y2="58" gradientUnits="userSpaceOnUse">
      <stop offset="0" stop-color="#38bdf8"/>
      <stop offset="1" stop-color="#0ea5e9"/>
    </linearGradient>
    <linearGradient id="towerB" x1="16" y1="14" x2="16" y2="60" gradientUnits="userSpaceOnUse">
      <stop offset="0" stop-color="#1f2937"/>
      <stop offset="1" stop-color="#0f172a"/>
    </linearGradient>
    <linearGradient id="towerC" x1="48" y1="14" x2="48" y2="60" gradientUnits="userSpaceOnUse">
      <stop offset="0" stop-color="#1f2937"/>
      <stop offset="1" stop-color="#0f172a"/>
    </linearGradient>
  </defs>
  <rect x="10" y="20" width="12" height="34" rx="1.5" fill="url(#towerB)" stroke="#0b1120" stroke-width="2"/>
  <rect x="42" y="20" width="12" height="34" rx="1.5" fill="url(#towerC)" stroke="#0b1120" stroke-width="2"/>
  <rect x="22" y="8" width="20" height="48" rx="1.5" fill="url(#towerA)" stroke="#0b1120" stroke-width="2"/>
  <rect x="25" y="12" width="4" height="6" rx=".8" fill="#0f172a"/>
  <rect x="35" y="12" width="4" height="6" rx=".8" fill="#0f172a"/>
  <rect x="25" y="22" width="4" height="6" rx=".8" fill="#0f172a"/>
  <rect x="35" y="22" width="4" height="6" rx=".8" fill="#0f172a"/>
  <rect x="25" y="32" width="4" height="6" rx=".8" fill="#0f172a"/>
  <rect x="35" y="32" width="4" height="6" rx=".8" fill="#0f172a"/>
  <rect x="25" y="42" width="4" height="6" rx=".8" fill="#0f172a"/>
  <rect x="35" y="42" width="4" height="6" rx=".8" fill="#0f172a"/>
  <rect x="12" y="24" width="3" height="4" rx=".6" fill="#e2e8f0"/>
  <rect x="17" y="24" width="3" height="4" rx=".6" fill="#e2e8f0"/>
  <rect x="12" y="30" width="3" height="4" rx=".6" fill="#e2e8f0"/>
  <rect x="17" y="30" width="3" height="4" rx=".6" fill="#e2e8f0"/>
  <rect x="12" y="36" width="3" height="4" rx=".6" fill="#e2e8f0"/>
  <rect x="17" y="36" width="3" height="4" rx=".6" fill="#e2e8f0"/>
  <rect x="12" y="42" width="3" height="4" rx=".6" fill="#e2e8f0"/>
  <rect x="17" y="42" width="3" height="4" rx=".6" fill="#e2e8f0"/>
  <rect x="44" y="24" width="3" height="4" rx=".6" fill="#e2e8f0"/>
  <rect x="49" y="24" width="3" height="4" rx=".6" fill="#e2e8f0"/>
  <rect x="44" y="30" width="3" height="4" rx=".6" fill="#e2e8f0"/>
  <rect x="49" y="30" width="3" height="4" rx=".6" fill="#e2e8f0"/>
  <rect x="44" y="36" width="3" height="4" rx=".6" fill="#e2e8f0"/>
  <rect x="49" y="36" width="3" height="4" rx=".6" fill="#e2e8f0"/>
  <rect x="44" y="42" width="3" height="4" rx=".6" fill="#e2e8f0"/>
  <rect x="49" y="42" width="3" height="4" rx=".6" fill="#e2e8f0"/>
  <path d="M4 58h56l-10 6H14z" fill="#94a3b8" stroke="#0b1120" stroke-width="2" stroke-linejoin="round"/>
  <path d="M28 46h8v14h-8z" fill="#f97316" stroke="#9a3412" stroke-width="1.5" stroke-linejoin="round"/>
  <path d="M20 6h24v4H20z" fill="#0b1120"/>
  <circle cx="24" cy="58" r="2" fill="#0b1120"/>
  <circle cx="40" cy="58" r="2" fill="#0b1120"/>
</svg>
